# xmcd
#
# Track frame offsets:
#	150
#	22902
#	44407
#	76130
#	115856
#	139185
#	177931
#	201682
#	234273
#
# Disc length: 3335 seconds
#
# Revision: 1
# Processed by: cddbd v1.5.2PL0 Copyright (c) Steve Scherf et al.
# Submitted via: audiograbber 1.83.01
#
DISCID=720d0509
DTITLE=Grateful Dead - 82-12-30 Oakland Auditorium Arena, Oakland CA
DYEAR=1900
DGENRE=
TTITLE0=Alabama Getaway
TTITLE1=Promised Land
TTITLE2=Loser
TTITLE3=Little Red Rooster
TTITLE4=Big Railroad Blues
TTITLE5=Feel Like A Stranger
TTITLE6=Dupree's Diamond Blues
TTITLE7=The Music Never Stopped
TTITLE8=Don't Ease Me In
EXTD=
EXTT0=
EXTT1=
EXTT2=
EXTT3=
EXTT4=
EXTT5=
EXTT6=
EXTT7=
EXTT8=
PLAYORDER=
